<svg version="1.1" id="Layer_1" xmlns="http://www.w3.org/2000/svg" xmlns:xlink="http://www.w3.org/1999/xlink" viewBox="0 0 392.598 392.598" xml:space="preserve" fill="#000000"><g id="SVGRepo_bgCarrier" stroke-width="0"></g><g id="SVGRepo_tracerCarrier" stroke-linecap="round" stroke-linejoin="round"></g><g id="SVGRepo_iconCarrier"> <path style="fill:#FFC10D;" d="M359.855,21.786H32.743c-6.012,0-10.925,4.848-10.925,10.925v57.083H370.78V32.711 C370.78,26.699,365.867,21.786,359.855,21.786z"></path> <path style="fill:#FFFFFF;" d="M21.818,359.822c0,6.012,4.848,10.925,10.925,10.925h327.111c6.012,0,10.925-4.848,10.925-10.925 V111.58H21.818V359.822z"></path> <path style="fill:#194F82;" d="M359.855,0H32.743C14.707,0,0.032,14.675,0.032,32.711v327.111c0,18.101,14.675,32.776,32.711,32.776 h327.111c18.036,0,32.711-14.675,32.711-32.711V32.711C392.566,14.675,377.891,0,359.855,0z M370.78,359.822 c0,6.012-4.848,10.925-10.925,10.925H32.743c-6.012,0-10.925-4.848-10.925-10.925V111.58H370.78L370.78,359.822L370.78,359.822z M370.78,89.794H21.818V32.711c0-6.012,4.848-10.925,10.925-10.925h327.111c6.012,0,10.925,4.848,10.925,10.925V89.794 L370.78,89.794z"></path> <rect x="43.604" y="133.366" style="fill:#56ACE0;" width="305.325" height="215.531"></rect> <g> <path style="fill:#194F82;" d="M56.339,65.81h196.848c6.012,0,10.925-4.848,10.925-10.925c0-6.012-4.848-10.925-10.925-10.925 H56.339c-6.012,0-10.925,4.848-10.925,10.925C45.479,60.962,50.327,65.81,56.339,65.81z"></path> <path style="fill:#194F82;" d="M310.529,65.81h25.729c6.012,0,10.925-4.848,10.925-10.925c0-6.012-4.848-10.925-10.925-10.925 h-25.729c-6.012,0-10.925,4.848-10.925,10.925C299.604,60.962,304.453,65.81,310.529,65.81z"></path> </g> <path style="fill:#FFFFFF;" d="M168.695,180.945c0-12.994-11.184-23.337-24.436-22.044c-6.982,0.711-12.994,4.913-16.743,10.731 c-3.685,5.689-12.024,5.689-15.774,0c-3.814-5.818-9.891-10.02-16.743-10.731c-13.188-1.293-24.436,9.051-24.436,22.044 c0,14.933,26.828,44.606,49.067,64.194C141.737,225.228,168.695,195.426,168.695,180.945z"></path> <g> <path style="fill:#194F82;" d="M146.521,138.602c-9.956,0-19.459,3.491-26.958,9.762c-7.499-6.206-16.937-9.762-26.958-9.762 c-23.337,0-42.343,19.006-42.343,42.343c0,31.677,52.299,76.671,62.836,85.333l0.388,0.323c3.491,2.909,8.598,2.844,12.154-0.065 l0.388-0.388c10.537-8.792,62.836-54.368,62.836-85.204C188.865,157.608,169.859,138.602,146.521,138.602z M70.497,180.945 c0-12.994,11.184-23.337,24.436-22.044c6.982,0.711,12.994,4.913,16.743,10.731c3.685,5.689,12.024,5.689,15.774,0 c3.814-5.818,9.891-10.02,16.743-10.731c13.188-1.293,24.436,9.051,24.436,22.044c0,14.481-26.893,44.283-49.131,64.194 C97.325,225.552,70.497,195.879,70.497,180.945z"></path> <path style="fill:#194F82;" d="M178.651,276.234H61.77c-5.495,0-9.956,4.461-9.956,9.956c0,5.495,4.461,9.956,9.956,9.956h116.945 c5.495,0,9.956-4.461,9.956-9.956C188.671,280.63,184.145,276.234,178.651,276.234z"></path> <path style="fill:#194F82;" d="M178.651,320H61.77c-5.495,0-9.956,4.461-9.956,9.956c0,5.495,4.461,9.956,9.956,9.956h116.945 c5.495,0,9.956-4.461,9.956-9.956C188.671,324.396,184.145,320,178.651,320z"></path> <path style="fill:#194F82;" d="M330.828,276.234H213.947c-5.495,0-9.956,4.461-9.956,9.956c0,5.495,4.461,9.956,9.956,9.956 h116.945c5.495,0,9.956-4.461,9.956-9.956C340.784,280.63,336.323,276.234,330.828,276.234z"></path> <path style="fill:#194F82;" d="M330.828,232.404H213.947c-5.495,0-9.956,4.461-9.956,9.956s4.461,9.956,9.956,9.956h116.945 c5.495,0,9.956-4.461,9.956-9.956C340.784,236.929,336.323,232.404,330.828,232.404z"></path> <path style="fill:#194F82;" d="M330.828,188.703H213.947c-5.495,0-9.956,4.461-9.956,9.956s4.461,9.956,9.956,9.956h116.945 c5.495,0,9.956-4.461,9.956-9.956C340.784,193.164,336.323,188.703,330.828,188.703z"></path> <path style="fill:#194F82;" d="M330.828,144.937H213.947c-5.495,0-9.956,4.461-9.956,9.956s4.461,9.956,9.956,9.956h116.945 c5.495,0,9.956-4.461,9.956-9.956C340.784,149.463,336.323,144.937,330.828,144.937z"></path> <path style="fill:#194F82;" d="M330.828,320H213.947c-5.495,0-9.956,4.461-9.956,9.956c0,5.495,4.461,9.956,9.956,9.956h116.945 c5.495,0,9.956-4.461,9.956-9.956C340.784,324.396,336.323,320,330.828,320z"></path> </g> </g></svg>
